<svg height="512.00003pt" viewBox="0 0 512.00003 512.00003" width="512.00003pt" xmlns="http://www.w3.org/2000/svg"><path d="m503.464844 162.132812v315.734376c0 14.136718-11.460938 25.597656-25.597656 25.597656h-443.734376c-14.136718 0-25.597656-11.460938-25.597656-25.597656v-358.402344c35.925782 8.796875 72.339844 15.464844 109.054688 19.96875l272.894531 21.078125c35.074219 1.023437 72.734375 1.566406 112.980469 1.621093zm0 0" fill="#ad1457"/><path d="m469.332031 162.132812v315.734376c0 14.136718-11.460937 25.597656-25.597656 25.597656h-409.601563c-14.136718 0-25.597656-11.460938-25.597656-25.597656v-350.804688c17.746094 3.582031 42.578125 7.933594 74.921875 12.371094l272.894531 21.078125c35.074219 1.023437 72.734376 1.566406 112.980469 1.621093zm0 0" fill="#e91e63"/><path d="m503.464844 34.132812v153.601563c-11.601563 0-23.039063-.085937-34.132813-.171875-27.648437-.171875-53.84375-.683594-78.847656-1.449219l-272.894531-21.078125c-36.714844-4.503906-73.128906-11.171875-109.054688-19.96875v-110.933594c0-14.136718 11.460938-25.597656 25.597656-25.597656h443.734376c14.136718 0 25.597656 11.460938 25.597656 25.597656zm0 0" fill="#fdd834"/><path d="m469.332031 34.132812v153.429688c-27.648437-.171875-53.84375-.683594-78.847656-1.449219l-272.894531-21.078125c-36.714844-4.503906-73.128906-11.171875-109.054688-19.96875v-110.933594c0-14.136718 11.460938-25.597656 25.597656-25.597656h409.601563c14.136719 0 25.597656 11.460938 25.597656 25.597656zm0 0" fill="#ffeb3a"/><path d="m375.464844 221.867188v34.644531c-.015625 7.867187-5.40625 14.707031-13.054688 16.554687-3.839844.9375-38.144531 0-63.742187 8.535156-6.011719 1.9375-11.359375 5.511719-15.445313 10.324219-4.871094 5.855469-8.03125 12.941407-9.132812 20.480469-.363282 1.683594-.589844 3.398438-.683594 5.117188-.246094 2.238281-.359375 4.492187-.339844 6.742187v100.949219c0 .855468 0 1.707031-.085937 2.5625-.820313 9.152344-6.125 17.304687-14.164063 21.757812-1.988281 1.042969-4.113281 1.789063-6.316406 2.21875-.761719.15625-1.527344.269532-2.300781.34375-.28125.070313-.566407.097656-.855469.082032-1.535156.101562-3.078125.074218-4.609375-.082032-.773437-.074218-1.542969-.1875-2.300781-.34375-2.203125-.429687-4.328125-1.175781-6.316406-2.21875-8.039063-4.453125-13.34375-12.605468-14.164063-21.757812-.085937-.855469-.085937-1.707032-.085937-2.5625v-100.949219c.019531-2.25-.09375-4.503906-.34375-6.742187-.089844-1.71875-.316407-3.433594-.679688-5.117188-1.101562-7.539062-4.261719-14.625-9.132812-20.480469-2.347657-2.8125-5.179688-5.183593-8.363282-6.996093-2.203125-1.417969-4.582031-2.539063-7.082031-3.328126-25.597656-8.535156-59.902344-7.597656-63.742187-8.535156-7.648438-1.847656-13.042969-8.6875-13.058594-16.554687v-34.644531zm0 0" fill="#9e9d24"/><path d="m358.398438 221.867188v9.042968c-.015626 7.871094-5.40625 14.707032-13.054688 16.554688-3.839844.941406-38.144531 0-63.742188 8.535156-6.011718 1.9375-11.359374 5.511719-15.445312 10.324219-4.871094 5.859375-8.03125 12.945312-9.132812 20.480469-.363282 1.6875-.59375 3.398437-.683594 5.121093-.246094 2.238281-.359375 4.488281-.339844 6.742188v100.949219c0 .851562 0 1.707031-.085938 2.558593-.820312 9.152344-6.125 17.304688-14.164062 21.761719-1.988281 1.039062-4.113281 1.789062-6.316406 2.21875-.761719.152344-1.53125.269531-2.304688.339844-.277344.070312-.566406.097656-.851562.085937-1.535156.097657-3.078125.070313-4.609375-.085937-.773438-.070313-1.542969-.1875-2.300781-.339844-1.195313-.257812-2.390626-.597656-3.5-.941406v-100.949219c.019531-2.25-.09375-4.503906-.34375-6.742187-.089844-1.71875-.316407-3.433594-.679688-5.117188-1.101562-7.539062-4.261719-14.625-9.132812-20.480469-2.347657-2.8125-5.179688-5.183593-8.363282-6.996093-1.621094-7.851563-4.691406-7.167969-8.703125-11.863282-4.351562-5.121094-9.726562 10.410156-15.445312 8.535156-21.503907-7.167968-32.167969-16.554687-42.664063-17.066406l-17.070312-42.667968zm0 0" fill="#cddc39"/><path d="m400.980469 129.367188-17.066407 92.5h-255.914062l-16.980469-92.5c-.402343-2.476563.304688-5 1.933594-6.90625 1.625-1.90625 4.007813-3 6.511719-2.996094h273.070312c2.503906-.003906 4.886719 1.089844 6.511719 2.996094 1.628906 1.90625 2.335937 4.429687 1.933594 6.90625zm0 0" fill="#607d8b"/><path d="m375.382812 129.367188-17.066406 92.5h-230.316406l-16.980469-92.5c-.402343-2.476563.304688-5 1.933594-6.90625 1.625-1.90625 4.007813-3 6.511719-2.996094h247.46875c2.503906-.003906 4.886718 1.089844 6.515625 2.996094 1.625 1.90625 2.332031 4.429687 1.933593 6.90625zm0 0" fill="#cfd8dc"/><path d="m315.734375 221.867188h-59.734375l-68.265625-102.402344h59.730469zm0 0" fill="#f4f4f4"/><path d="m34.132812 512h443.734376c18.851562 0 34.132812-15.28125 34.132812-34.132812v-443.734376c0-18.851562-15.28125-34.132812-34.132812-34.132812h-443.734376c-18.851562 0-34.132812 15.28125-34.132812 34.132812v443.734376c0 18.851562 15.28125 34.132812 34.132812 34.132812zm443.734376-17.066406h-443.734376c-9.425781 0-17.066406-7.640625-17.066406-17.066406v-321.894532c14.898438 3.464844 45.507813 9.863282 93.226563 16.640625l9.171875 50.039063v33.859375c.015625 11.804687 8.097656 22.066406 19.570312 24.847656 3.082032.511719 6.207032.761719 9.332032.753906 18.171874.21875 36.242187 2.773438 53.761718 7.59375 4.535156 1.457031 8.566406 4.160157 11.640625 7.800781 3.914063 4.769532 6.417969 10.539063 7.234375 16.65625.308594 1.4375.496094 2.898438.5625 4.367188.210938 1.90625.3125 3.820312.300782 5.734375v100.949219c0 1.128906 0 2.253906.117187 3.347656 1.109375 12.046875 8.148437 22.753906 18.773437 28.542969 2.644532 1.390625 5.472657 2.394531 8.398438 2.976562 1.058594.21875 2.132812.386719 3.207031.496094 1.207031.136719 2.421875.210937 3.636719.222656.683594 0 1.324219 0 1.902344-.058593.765625.007812 1.535156-.058594 2.289062-.199219.828125-.085938 1.65625-.214844 2.472656-.382813 3.042969-.59375 5.980469-1.628906 8.722657-3.070312 10.550781-5.785156 17.539062-16.433594 18.636719-28.417969.101562-1.132813.148437-2.273437.136718-3.414063v-100.992187c-.015625-2.121094.09375-4.238281.332032-6.347656.078124-1.363281.269531-2.714844.570312-4.042969.839844-6.039062 3.335938-11.722656 7.21875-16.421875 3.078125-3.621094 7.113281-6.308594 11.640625-7.753906 17.519531-4.820313 35.589844-7.371094 53.761719-7.585938 3.144531.015625 6.285156-.238281 9.386718-.761719 11.4375-2.804687 19.476563-13.0625 19.464844-24.839843v-34.234375l5.058594-27.476563c31.847656.851563 64.476562 1.335938 97.339844 1.40625v281.660157c0 9.425781-7.640625 17.066406-17.066406 17.066406zm-223.746094-51.328125c-.527344-.050781-1.050782-.125-1.570313-.230469-1.359375-.265625-2.675781-.726562-3.90625-1.367188-5.507812-3.125-9.136719-8.753906-9.710937-15.058593-.050782-.582031 0-1.152344 0-1.707031v-100.976563c.027344-2.382813-.089844-4.765625-.351563-7.132813-.101562-2.082031-.371093-4.15625-.800781-6.195312-1.367188-9.035156-5.183594-17.523438-11.035156-24.542969-5.085938-6.007812-11.753906-10.472656-19.25-12.894531-19.007813-5.390625-38.644532-8.226562-58.402344-8.4375-3.070312-.136719-5.296875-.195312-5.972656-.28125-3.84375-.902344-6.570313-4.320312-6.585938-8.269531v-26.113281h238.933594l-.003906 26.113281c.023437 3.820312-2.519532 7.179687-6.203125 8.191406-1.066407.164063-3.292969.222656-6.355469.359375-19.742188.207031-39.367188 3.042969-58.359375 8.429688-7.492187 2.40625-14.160156 6.855468-19.25 12.851562-5.824219 6.933594-9.636719 15.324219-11.035156 24.269531-.425781 1.925781-.699219 3.882813-.8125 5.855469-.285157 2.589844-.414063 5.191406-.382813 7.796875v100.949219c.015625.59375 0 1.1875-.050781 1.777344-.5625 6.257812-4.148437 11.847656-9.601563 14.976562-1.339843.695312-2.777343 1.1875-4.265624 1.457031-.445313.09375-.851563.128907-1.417969.1875l-.332031.050781c-1.089844.074219-2.1875.054688-3.277344-.058593zm122.695312-230.273438h-56.535156l-56.882812-85.332031h129.136718zm-133.933594-85.332031 56.894532 85.332031h-39.253906l-56.859376-85.332031zm-59.730468 0 56.890625 85.332031h-104.960938l-15.617187-85.332031zm-149.019532-110.933594h443.734376c9.425781 0 17.066406 7.640625 17.066406 17.066406v145.007813c-31.796875-.070313-63.359375-.53125-94.214844-1.339844l8.652344-46.992187c.824218-4.949219-.570313-10.011719-3.8125-13.839844-3.246094-3.828125-8.007813-6.035156-13.023438-6.035156h-273.070312c-5.039063 0-9.824219 2.230468-13.066406 6.089844-3.242188 3.859374-4.613282 8.953124-3.742188 13.921874l4.394531 23.96875c-48.238281-7.03125-77.953125-13.59375-89.984375-16.496093v-104.285157c0-9.425781 7.640625-17.066406 17.066406-17.066406zm0 0"/></svg>